<svg xmlns="http://www.w3.org/2000/svg" viewBox="0 0 1600 900" width="1600" height="900" role="img">
  <title>BORA — English case study</title>
  <rect x="0" y="0" width="1600" height="900" fill="#F5F0DF" />
  <g transform="translate(46.53333333333333 26) scale(0.8733333333333333 1)"><text x="20" y="38.46153846153846" font-family="Arial, sans-serif" font-size="19.23" font-weight="700" fill="#1742DE" aria-label="01 / THE BRAND">01 / THE BRAND</text></g>
  <path d="M64 166.357L93.121 166.357C102.32 166.357 109.288 167.073 114.026 168.505C118.764 169.937 122.589 172.836 125.501 177.201C128.413 181.566 129.869 188.599 129.869 198.3C129.869 204.859 128.841 209.432 126.784 212.019C124.727 214.606 120.671 216.592 114.615 217.978C121.364 219.504 125.94 222.036 128.344 225.575C130.747 229.113 131.949 234.536 131.949 241.844L131.949 252.249C131.949 259.835 131.083 265.454 129.349 269.108C127.616 272.762 124.854 275.259 121.063 276.6C117.273 277.942 109.507 278.612 97.767 278.612L64 278.612ZM93.19 185.563L93.19 210.524C94.438 210.478 95.409 210.455 96.103 210.455C98.968 210.455 100.794 209.75 101.58 208.34C102.366 206.931 102.759 202.897 102.759 196.241C102.759 192.728 102.435 190.267 101.788 188.857C101.141 187.447 100.297 186.557 99.257 186.188C98.217 185.818 96.195 185.61 93.19 185.563ZM93.19 227.997L93.19 259.406C97.304 259.268 99.928 258.62 101.06 257.465C102.193 256.309 102.759 253.466 102.759 248.937L102.759 238.467C102.759 233.66 102.25 230.747 101.233 229.73C100.216 228.714 97.535 228.136 93.19 227.997ZM209.12 232.088C209.12 243.367 208.854 251.352 208.323 256.043C207.791 260.735 206.127 265.022 203.331 268.905C200.534 272.788 196.755 275.77 191.994 277.85C187.233 279.93 181.686 280.97 175.354 280.97C169.344 280.97 163.948 279.987 159.164 278.023C154.379 276.058 150.531 273.112 147.619 269.183C144.707 265.254 142.974 260.978 142.419 256.355C141.864 251.733 141.587 243.644 141.587 232.088L141.587 212.882C141.587 201.603 141.853 193.618 142.384 188.926C142.916 184.235 144.58 179.947 147.376 176.064C150.173 172.182 153.952 169.2 158.713 167.12C163.474 165.04 169.021 164 175.354 164C181.363 164 186.759 164.982 191.543 166.947C196.328 168.911 200.176 171.858 203.088 175.787C206 179.716 207.733 183.992 208.288 188.614C208.843 193.237 209.12 201.326 209.12 212.882ZM179.93 195.201C179.93 189.978 179.641 186.638 179.063 185.182C178.485 183.726 177.295 182.998 175.492 182.998C173.967 182.998 172.8 183.587 171.991 184.766C171.182 185.945 170.777 189.423 170.777 195.201L170.777 247.619C170.777 254.137 171.043 258.158 171.575 259.684C172.106 261.209 173.343 261.972 175.284 261.972C177.272 261.972 178.543 261.093 179.098 259.337C179.652 257.58 179.93 253.397 179.93 246.787ZM220.006 166.357L240.668 166.357C254.443 166.357 263.768 166.889 268.645 167.952C273.522 169.015 277.497 171.731 280.571 176.099C283.645 180.467 285.182 187.436 285.182 197.004C285.182 205.74 284.095 211.611 281.923 214.615C279.75 217.62 275.475 219.423 269.096 220.023C274.874 221.456 278.757 223.375 280.744 225.778C282.732 228.182 283.968 230.389 284.454 232.4C284.939 234.411 285.182 239.946 285.182 249.006L285.182 278.612L258.071 278.612L258.071 241.31C258.071 235.3 257.597 231.579 256.65 230.146C255.702 228.714 253.218 227.997 249.196 227.997L249.196 278.612L220.006 278.612ZM249.196 185.563L249.196 210.524C252.478 210.524 254.778 210.074 256.095 209.172C257.413 208.271 258.071 205.347 258.071 200.401L258.071 194.23C258.071 190.671 257.436 188.337 256.165 187.228C254.893 186.118 252.571 185.563 249.196 185.563ZM346.943 166.357L363.635 278.612L333.803 278.612L332.237 258.436L321.795 258.436L320.04 278.612L289.862 278.612L304.752 166.357ZM331.472 238.536C329.995 225.822 328.513 210.106 327.026 191.388C324.052 212.883 322.185 228.599 321.424 238.536Z" fill="#1742DE" aria-label="BORA" />
  <g transform="translate(41 164.92537313432837) scale(1 0.8805970149253731)"><text x="20" y="323.28767123287673" font-family="Impact, Arial Narrow, sans-serif" font-size="161.64" font-weight="700" fill="#1742DE" aria-label="STAY">STAY</text></g>
  <g transform="translate(45.53737373737374 325.62790697674416) scale(0.9717171717171718 0.9147286821705426)"><text x="20" y="323.28767123287673" font-family="Impact, Arial Narrow, sans-serif" font-size="161.64" font-weight="700" fill="#1742DE" aria-label="A LITTLE">A LITTLE</text></g>
  <g transform="translate(43.147999999999996 505.92537313432837) scale(0.802 0.8805970149253731)"><text x="20" y="323.28767123287673" font-family="Impact, Arial Narrow, sans-serif" font-size="161.64" font-weight="700" fill="#1742DE" aria-label="LONGER.">LONGER.</text></g>
  <g transform="translate(990.7821612349915 121.52941176470588) scale(0.8198970840480274 1.0588235294117647)"><text x="20" y="92.3076923076923" font-family="Arial, sans-serif" font-size="46.15" font-weight="400" fill="#1742DE" aria-label="The invitation is in the name.">The invitation is in the name.</text></g>
  <g transform="translate(988.4772234273319 244) scale(0.9761388286334056 0.8181818181818182)"><text x="20" y="69.23076923076923" font-family="Arial, sans-serif" font-size="34.62" font-weight="400" fill="#24251F" aria-label="A neighborhood focacceria for">A neighborhood focacceria for</text></g>
  <g transform="translate(992.027397260274 279) scale(0.726027397260274 0.8181818181818182)"><text x="20" y="69.23076923076923" font-family="Arial, sans-serif" font-size="34.62" font-weight="400" fill="#24251F" aria-label="breaks that bring people together.">breaks that bring people together.</text></g>
  <path d="" fill="#24251F" aria-label="" />
  <g transform="translate(990.8108108108108 345.4) scale(0.8185328185328186 0.9)"><text x="20" y="69.23076923076923" font-family="Arial, sans-serif" font-size="34.62" font-weight="400" fill="#24251F" aria-label="Slow-fermented bread, coffee and">Slow-fermented bread, coffee and</text></g>
  <g transform="translate(987 374.3076923076923) scale(1 1.0384615384615385)"><text x="20" y="69.23076923076923" font-family="Arial, sans-serif" font-size="34.62" font-weight="400" fill="#24251F" aria-label="a table with room for">a table with room for</text></g>
  <g transform="translate(994.1842105263158 387.5) scale(0.6578947368421053 1.35)"><text x="20" y="69.23076923076923" font-family="Arial, sans-serif" font-size="34.62" font-weight="400" fill="#24251F" aria-label="one more.">one more.</text></g>
  <g transform="translate(987 610) scale(1 1)"><text x="20" y="38.46153846153846" font-family="Arial, sans-serif" font-size="19.23" font-weight="700" fill="#1742DE" aria-label="POSITIONING">POSITIONING</text></g>
  <g transform="translate(986 657.5172413793103) scale(1 0.8620689655172413)"><text x="20" y="64.1025641025641" font-family="Arial, sans-serif" font-size="32.05" font-weight="400" fill="#24251F" aria-label="Handmade food, no fuss.">Handmade food, no fuss.</text></g>
  <g transform="translate(988 697.5384615384615) scale(1 0.8076923076923077)"><text x="20" y="53.84615384615385" font-family="Arial, sans-serif" font-size="26.92" font-weight="400" fill="#24251F" aria-label="A warm and playful brand">A warm and playful brand</text></g>
  <g transform="translate(992.785046728972 723.875) scale(0.7607476635514019 0.8125)"><text x="20" y="66.66666666666667" font-family="Arial, sans-serif" font-size="33.33" font-weight="400" fill="#24251F" aria-label="for people who love to share a meal.">for people who love to share a meal.</text></g>
</svg>