<svg xmlns="http://www.w3.org/2000/svg" viewBox="0 0 1600 900" width="1600" height="900" role="img">
  <title>NÓA — English case study</title>
  <rect x="0" y="0" width="1600" height="900" fill="#231134" />
  <g transform="translate(46.32673267326733 28.52173913043478) scale(0.8415841584158416 0.8260869565217391)"><text x="20" y="48.717948717948715" font-family="Arial, sans-serif" font-size="24.36" font-weight="700" fill="#F4EBDD" aria-label="NÓA / MODULAR SYSTEM">NÓA / MODULAR SYSTEM</text></g>
  <g transform="translate(42 82.84210526315789) scale(1 0.8947368421052632)"><text x="20" y="139.72602739726028" font-family="Impact, Arial Narrow, sans-serif" font-size="69.86" font-weight="700" fill="#F4EBDD" aria-label="Modular structure.">Modular structure.</text></g>
  <g transform="translate(45 170.015873015873) scale(1 0.8253968253968254)"><text x="20" y="142.46575342465755" font-family="Impact, Arial Narrow, sans-serif" font-size="71.23" font-weight="700" fill="#F4EBDD" aria-label="Asymmetric rhythm.">Asymmetric rhythm.</text></g>
  <g transform="translate(46.23344370860927 391) scale(0.8460264900662252 0.8181818181818182)"><text x="20" y="69.23076923076923" font-family="Arial, sans-serif" font-size="34.62" font-weight="400" fill="#F4EBDD" aria-label="Color, space and hierarchy create unity.">Color, space and hierarchy create unity.</text></g>
  <g transform="translate(48.708333333333336 434) scale(0.7645833333333333 0.8181818181818182)"><text x="20" y="69.23076923076923" font-family="Arial, sans-serif" font-size="34.62" font-weight="400" fill="#F4EBDD" aria-label="The portal connects the flavors;">The portal connects the flavors;</text></g>
  <g transform="translate(46.83849918433931 477) scale(0.8580750407830342 0.8181818181818182)"><text x="20" y="69.23076923076923" font-family="Arial, sans-serif" font-size="34.62" font-weight="400" fill="#F4EBDD" aria-label="the composition opens new possibilities.">the composition opens new possibilities.</text></g>
  <rect x="900" y="139" width="636" height="360" fill="#F4EBDD" />
  <g transform="translate(914 131.32142857142856) scale(1 1.0357142857142858)"><text x="20" y="74.35897435897435" font-family="Arial, sans-serif" font-size="37.18" font-weight="700" fill="#231134" aria-label="OPEN A NEW FLAVOR.">OPEN A NEW FLAVOR.</text></g>
  <rect x="935" y="263" width="270" height="198" fill="#D8FF42" />
  <g transform="translate(987 280) scale(0.652)">
    <path fill="#231134" d="M0 250V125A125 125 0 0 1 250 125V250H210V125A85 85 0 0 0 40 125V250Z" />
    <g fill="#231134">
      <path d="M59 155Q102 135 108 187Q57 202 59 155Z" />
      <path d="M191 155Q148 135 142 187Q193 202 191 155Z" />
      <circle cx="125" cy="97" r="31" />
      <path d="M151 78Q139 50 171 44Q180 70 151 78Z" />
    </g>
  </g>
  <rect x="1225" y="263" width="276" height="94" fill="#FF667E" />
  <rect x="1225" y="377" width="276" height="84" fill="#9AE6E4" />
  <g transform="translate(909 586) scale(0.332)">
    <path fill="#D8FF42" d="M0 250V125A125 125 0 0 1 250 125V250H210V125A85 85 0 0 0 40 125V250Z" />
    <g fill="#D8FF42">
      <path d="M59 155Q102 135 108 187Q57 202 59 155Z" />
      <path d="M191 155Q148 135 142 187Q193 202 191 155Z" />
      <circle cx="125" cy="97" r="31" />
      <path d="M151 78Q139 50 171 44Q180 70 151 78Z" />
    </g>
  </g>
  <g transform="translate(1013 586) scale(0.332)">
    <path fill="#FF667E" d="M0 250V125A125 125 0 0 1 250 125V250H210V125A85 85 0 0 0 40 125V250Z" />
    <g fill="#FF667E">
      <path d="M59 155Q102 135 108 187Q57 202 59 155Z" />
      <path d="M191 155Q148 135 142 187Q193 202 191 155Z" />
      <ellipse cx="125" cy="83" rx="15" ry="29" transform="rotate(0 125 108)" />
      <ellipse cx="125" cy="83" rx="15" ry="29" transform="rotate(72 125 108)" />
      <ellipse cx="125" cy="83" rx="15" ry="29" transform="rotate(144 125 108)" />
      <ellipse cx="125" cy="83" rx="15" ry="29" transform="rotate(216 125 108)" />
      <ellipse cx="125" cy="83" rx="15" ry="29" transform="rotate(288 125 108)" />
      <circle cx="125" cy="108" r="7" fill="#FF667E" />
    </g>
  </g>
  <g transform="translate(1117 586) scale(0.332)">
    <path fill="#9AE6E4" d="M0 250V125A125 125 0 0 1 250 125V250H210V125A85 85 0 0 0 40 125V250Z" />
    <g fill="#9AE6E4">
      <path d="M59 155Q102 135 108 187Q57 202 59 155Z" />
      <path d="M191 155Q148 135 142 187Q193 202 191 155Z" />
      <path d="M123 55H127V144H123Z M127 72Q155 49 156 65Q166 105 127 102Z M122 102Q88 78 91 99Q87 127 123 127Z" />
    </g>
  </g>
  <g transform="translate(1221 586) scale(0.332)">
    <path fill="#D8FF42" d="M0 250V125A125 125 0 0 1 250 125V250H210V125A85 85 0 0 0 40 125V250Z" />
    <g fill="#D8FF42">
      <path d="M59 155Q102 135 108 187Q57 202 59 155Z" />
      <path d="M191 155Q148 135 142 187Q193 202 191 155Z" />
      <circle cx="125" cy="97" r="31" />
      <path d="M151 78Q139 50 171 44Q180 70 151 78Z" />
    </g>
  </g>
  <g transform="translate(1325 586) scale(0.332)">
    <path fill="#FF667E" d="M0 250V125A125 125 0 0 1 250 125V250H210V125A85 85 0 0 0 40 125V250Z" />
    <g fill="#FF667E">
      <path d="M59 155Q102 135 108 187Q57 202 59 155Z" />
      <path d="M191 155Q148 135 142 187Q193 202 191 155Z" />
      <ellipse cx="125" cy="83" rx="15" ry="29" transform="rotate(0 125 108)" />
      <ellipse cx="125" cy="83" rx="15" ry="29" transform="rotate(72 125 108)" />
      <ellipse cx="125" cy="83" rx="15" ry="29" transform="rotate(144 125 108)" />
      <ellipse cx="125" cy="83" rx="15" ry="29" transform="rotate(216 125 108)" />
      <ellipse cx="125" cy="83" rx="15" ry="29" transform="rotate(288 125 108)" />
      <circle cx="125" cy="108" r="7" fill="#FF667E" />
    </g>
  </g>
  <g transform="translate(1429 586) scale(0.332)">
    <path fill="#9AE6E4" d="M0 250V125A125 125 0 0 1 250 125V250H210V125A85 85 0 0 0 40 125V250Z" />
    <g fill="#9AE6E4">
      <path d="M59 155Q102 135 108 187Q57 202 59 155Z" />
      <path d="M191 155Q148 135 142 187Q193 202 191 155Z" />
      <path d="M123 55H127V144H123Z M127 72Q155 49 156 65Q166 105 127 102Z M122 102Q88 78 91 99Q87 127 123 127Z" />
    </g>
  </g>
  <g transform="translate(909 703) scale(0.332)">
    <path fill="#FF667E" d="M0 250V125A125 125 0 0 1 250 125V250H210V125A85 85 0 0 0 40 125V250Z" />
    <g fill="#FF667E">
      <path d="M59 155Q102 135 108 187Q57 202 59 155Z" />
      <path d="M191 155Q148 135 142 187Q193 202 191 155Z" />
      <ellipse cx="125" cy="83" rx="15" ry="29" transform="rotate(0 125 108)" />
      <ellipse cx="125" cy="83" rx="15" ry="29" transform="rotate(72 125 108)" />
      <ellipse cx="125" cy="83" rx="15" ry="29" transform="rotate(144 125 108)" />
      <ellipse cx="125" cy="83" rx="15" ry="29" transform="rotate(216 125 108)" />
      <ellipse cx="125" cy="83" rx="15" ry="29" transform="rotate(288 125 108)" />
      <circle cx="125" cy="108" r="7" fill="#FF667E" />
    </g>
  </g>
  <g transform="translate(1013 703) scale(0.332)">
    <path fill="#9AE6E4" d="M0 250V125A125 125 0 0 1 250 125V250H210V125A85 85 0 0 0 40 125V250Z" />
    <g fill="#9AE6E4">
      <path d="M59 155Q102 135 108 187Q57 202 59 155Z" />
      <path d="M191 155Q148 135 142 187Q193 202 191 155Z" />
      <path d="M123 55H127V144H123Z M127 72Q155 49 156 65Q166 105 127 102Z M122 102Q88 78 91 99Q87 127 123 127Z" />
    </g>
  </g>
  <g transform="translate(1117 703) scale(0.332)">
    <path fill="#D8FF42" d="M0 250V125A125 125 0 0 1 250 125V250H210V125A85 85 0 0 0 40 125V250Z" />
    <g fill="#D8FF42">
      <path d="M59 155Q102 135 108 187Q57 202 59 155Z" />
      <path d="M191 155Q148 135 142 187Q193 202 191 155Z" />
      <circle cx="125" cy="97" r="31" />
      <path d="M151 78Q139 50 171 44Q180 70 151 78Z" />
    </g>
  </g>
  <g transform="translate(1221 703) scale(0.332)">
    <path fill="#FF667E" d="M0 250V125A125 125 0 0 1 250 125V250H210V125A85 85 0 0 0 40 125V250Z" />
    <g fill="#FF667E">
      <path d="M59 155Q102 135 108 187Q57 202 59 155Z" />
      <path d="M191 155Q148 135 142 187Q193 202 191 155Z" />
      <ellipse cx="125" cy="83" rx="15" ry="29" transform="rotate(0 125 108)" />
      <ellipse cx="125" cy="83" rx="15" ry="29" transform="rotate(72 125 108)" />
      <ellipse cx="125" cy="83" rx="15" ry="29" transform="rotate(144 125 108)" />
      <ellipse cx="125" cy="83" rx="15" ry="29" transform="rotate(216 125 108)" />
      <ellipse cx="125" cy="83" rx="15" ry="29" transform="rotate(288 125 108)" />
      <circle cx="125" cy="108" r="7" fill="#FF667E" />
    </g>
  </g>
  <g transform="translate(1325 703) scale(0.332)">
    <path fill="#9AE6E4" d="M0 250V125A125 125 0 0 1 250 125V250H210V125A85 85 0 0 0 40 125V250Z" />
    <g fill="#9AE6E4">
      <path d="M59 155Q102 135 108 187Q57 202 59 155Z" />
      <path d="M191 155Q148 135 142 187Q193 202 191 155Z" />
      <path d="M123 55H127V144H123Z M127 72Q155 49 156 65Q166 105 127 102Z M122 102Q88 78 91 99Q87 127 123 127Z" />
    </g>
  </g>
  <g transform="translate(1429 703) scale(0.332)">
    <path fill="#D8FF42" d="M0 250V125A125 125 0 0 1 250 125V250H210V125A85 85 0 0 0 40 125V250Z" />
    <g fill="#D8FF42">
      <path d="M59 155Q102 135 108 187Q57 202 59 155Z" />
      <path d="M191 155Q148 135 142 187Q193 202 191 155Z" />
      <circle cx="125" cy="97" r="31" />
      <path d="M151 78Q139 50 171 44Q180 70 151 78Z" />
    </g>
  </g>
  <g transform="translate(43 821) scale(1 1)"><text x="20" y="33.333333333333336" font-family="Arial, sans-serif" font-size="16.67" font-weight="700" fill="#F4EBDD" aria-label="HARLEY AGUILAR · CONCEPT PROJECT · 2026">HARLEY AGUILAR · CONCEPT PROJECT · 2026</text></g>
</svg>